<mxfile host="app.diagrams.net" agent="Mozilla/5.0 (Windows NT 10.0; Win64; x64) AppleWebKit/537.36 (KHTML, like Gecko) Chrome/135.0.0.0 Safari/537.36" version="26.1.3">
  <diagram name="Halaman-1" id="7sQ2C0lwtfNTcaT-P8Yg">
    <mxGraphModel dx="1154" dy="509" grid="1" gridSize="10" guides="1" tooltips="1" connect="1" arrows="1" fold="1" page="1" pageScale="1" pageWidth="827" pageHeight="1169" math="0" shadow="0">
      <root>
        <mxCell id="0" />
        <mxCell id="1" parent="0" />
        <mxCell id="tzy8CCWXX4crSWWEIRE--2" value="Kustomer" style="swimlane;startSize=20;whiteSpace=wrap;html=1;" vertex="1" parent="1">
          <mxGeometry x="80" y="40" width="160" height="880" as="geometry" />
        </mxCell>
        <mxCell id="tzy8CCWXX4crSWWEIRE--1" value="Mulai" style="strokeWidth=2;html=1;shape=mxgraph.flowchart.terminator;whiteSpace=wrap;" vertex="1" parent="tzy8CCWXX4crSWWEIRE--2">
          <mxGeometry x="50" y="40" width="60" height="30" as="geometry" />
        </mxCell>
        <mxCell id="tzy8CCWXX4crSWWEIRE--9" value="Cek Kursi&amp;nbsp;&lt;div&gt;Kosong&lt;/div&gt;" style="verticalLabelPosition=middle;verticalAlign=middle;html=1;shape=trapezoid;perimeter=trapezoidPerimeter;whiteSpace=wrap;size=0.23;arcSize=10;flipV=1;labelPosition=center;align=center;" vertex="1" parent="tzy8CCWXX4crSWWEIRE--2">
          <mxGeometry x="30" y="110" width="100" height="60" as="geometry" />
        </mxCell>
        <mxCell id="tzy8CCWXX4crSWWEIRE--10" value="Kursi&amp;nbsp;&lt;div&gt;Tersedia?&lt;/div&gt;" style="strokeWidth=2;html=1;shape=mxgraph.flowchart.decision;whiteSpace=wrap;" vertex="1" parent="tzy8CCWXX4crSWWEIRE--2">
          <mxGeometry x="42.5" y="210" width="75" height="80" as="geometry" />
        </mxCell>
        <mxCell id="tzy8CCWXX4crSWWEIRE--11" value="" style="endArrow=classic;html=1;rounded=0;exitX=0.5;exitY=1;exitDx=0;exitDy=0;exitPerimeter=0;entryX=0.5;entryY=0;entryDx=0;entryDy=0;" edge="1" parent="tzy8CCWXX4crSWWEIRE--2" source="tzy8CCWXX4crSWWEIRE--1" target="tzy8CCWXX4crSWWEIRE--9">
          <mxGeometry width="50" height="50" relative="1" as="geometry">
            <mxPoint x="310" y="340" as="sourcePoint" />
            <mxPoint x="360" y="290" as="targetPoint" />
          </mxGeometry>
        </mxCell>
        <mxCell id="tzy8CCWXX4crSWWEIRE--21" value="" style="endArrow=classic;html=1;rounded=0;exitX=0.5;exitY=1;exitDx=0;exitDy=0;entryX=0.5;entryY=0;entryDx=0;entryDy=0;entryPerimeter=0;" edge="1" parent="tzy8CCWXX4crSWWEIRE--2" source="tzy8CCWXX4crSWWEIRE--9" target="tzy8CCWXX4crSWWEIRE--10">
          <mxGeometry width="50" height="50" relative="1" as="geometry">
            <mxPoint x="90" y="80" as="sourcePoint" />
            <mxPoint x="90" y="120" as="targetPoint" />
          </mxGeometry>
        </mxCell>
        <mxCell id="tzy8CCWXX4crSWWEIRE--36" value="Iya" style="text;html=1;align=center;verticalAlign=middle;resizable=0;points=[];autosize=1;strokeColor=none;fillColor=none;" vertex="1" parent="tzy8CCWXX4crSWWEIRE--2">
          <mxGeometry x="50" y="530" width="40" height="30" as="geometry" />
        </mxCell>
        <mxCell id="tzy8CCWXX4crSWWEIRE--38" value="Iya" style="text;html=1;align=center;verticalAlign=middle;resizable=0;points=[];autosize=1;strokeColor=none;fillColor=none;" vertex="1" parent="tzy8CCWXX4crSWWEIRE--2">
          <mxGeometry x="50" y="780" width="40" height="30" as="geometry" />
        </mxCell>
        <mxCell id="tzy8CCWXX4crSWWEIRE--7" value="Pegawai" style="swimlane;startSize=20;whiteSpace=wrap;html=1;" vertex="1" parent="1">
          <mxGeometry x="240" y="40" width="160" height="880" as="geometry" />
        </mxCell>
        <mxCell id="tzy8CCWXX4crSWWEIRE--12" value="Meminta menunggu&amp;nbsp;&lt;div&gt;pada sofa&lt;/div&gt;" style="verticalLabelPosition=middle;verticalAlign=middle;html=1;shape=trapezoid;perimeter=trapezoidPerimeter;whiteSpace=wrap;size=0.23;arcSize=10;flipV=1;labelPosition=center;align=center;" vertex="1" parent="tzy8CCWXX4crSWWEIRE--7">
          <mxGeometry x="30" y="220" width="100" height="60" as="geometry" />
        </mxCell>
        <mxCell id="tzy8CCWXX4crSWWEIRE--16" value="Menyarankan gaya rambut" style="verticalLabelPosition=middle;verticalAlign=middle;html=1;shape=trapezoid;perimeter=trapezoidPerimeter;whiteSpace=wrap;size=0.23;arcSize=10;flipV=1;labelPosition=center;align=center;" vertex="1" parent="tzy8CCWXX4crSWWEIRE--7">
          <mxGeometry x="30" y="450" width="100" height="60" as="geometry" />
        </mxCell>
        <mxCell id="tzy8CCWXX4crSWWEIRE--20" value="Mengkeramas&amp;nbsp;&lt;div&gt;rambut&lt;/div&gt;" style="verticalLabelPosition=middle;verticalAlign=middle;html=1;shape=trapezoid;perimeter=trapezoidPerimeter;whiteSpace=wrap;size=0.23;arcSize=10;flipV=1;labelPosition=center;align=center;" vertex="1" parent="tzy8CCWXX4crSWWEIRE--7">
          <mxGeometry x="30" y="700" width="100" height="60" as="geometry" />
        </mxCell>
        <mxCell id="tzy8CCWXX4crSWWEIRE--17" value="Mencukur&amp;nbsp;&lt;div&gt;rambut&lt;/div&gt;" style="verticalLabelPosition=middle;verticalAlign=middle;html=1;shape=trapezoid;perimeter=trapezoidPerimeter;whiteSpace=wrap;size=0.23;arcSize=10;flipV=1;labelPosition=center;align=center;" vertex="1" parent="tzy8CCWXX4crSWWEIRE--7">
          <mxGeometry x="30" y="575" width="100" height="60" as="geometry" />
        </mxCell>
        <mxCell id="tzy8CCWXX4crSWWEIRE--29" value="" style="endArrow=classic;html=1;rounded=0;exitX=0.5;exitY=1;exitDx=0;exitDy=0;entryX=0.5;entryY=0;entryDx=0;entryDy=0;" edge="1" parent="tzy8CCWXX4crSWWEIRE--7" source="tzy8CCWXX4crSWWEIRE--16" target="tzy8CCWXX4crSWWEIRE--17">
          <mxGeometry width="50" height="50" relative="1" as="geometry">
            <mxPoint x="320" y="250" as="sourcePoint" />
            <mxPoint x="310" y="300" as="targetPoint" />
          </mxGeometry>
        </mxCell>
        <mxCell id="tzy8CCWXX4crSWWEIRE--30" value="" style="endArrow=classic;html=1;rounded=0;exitX=0.5;exitY=1;exitDx=0;exitDy=0;entryX=0.5;entryY=0;entryDx=0;entryDy=0;" edge="1" parent="tzy8CCWXX4crSWWEIRE--7" source="tzy8CCWXX4crSWWEIRE--17" target="tzy8CCWXX4crSWWEIRE--20">
          <mxGeometry width="50" height="50" relative="1" as="geometry">
            <mxPoint x="90" y="520" as="sourcePoint" />
            <mxPoint x="90" y="570" as="targetPoint" />
          </mxGeometry>
        </mxCell>
        <mxCell id="tzy8CCWXX4crSWWEIRE--13" value="Mengambil&amp;nbsp;&lt;div&gt;kursi&amp;nbsp;&lt;/div&gt;&lt;div&gt;kosong&lt;/div&gt;" style="verticalLabelPosition=middle;verticalAlign=middle;html=1;shape=trapezoid;perimeter=trapezoidPerimeter;whiteSpace=wrap;size=0.23;arcSize=10;flipV=1;labelPosition=center;align=center;" vertex="1" parent="1">
          <mxGeometry x="110" y="370" width="100" height="60" as="geometry" />
        </mxCell>
        <mxCell id="tzy8CCWXX4crSWWEIRE--14" value="Sudah&amp;nbsp;&lt;div&gt;punya&lt;div&gt;gaya&amp;nbsp;&lt;/div&gt;&lt;div&gt;rambut?&lt;/div&gt;&lt;/div&gt;" style="strokeWidth=2;html=1;shape=mxgraph.flowchart.decision;whiteSpace=wrap;" vertex="1" parent="1">
          <mxGeometry x="116.25" y="470" width="87.5" height="100" as="geometry" />
        </mxCell>
        <mxCell id="tzy8CCWXX4crSWWEIRE--15" value="&lt;div&gt;&lt;span style=&quot;background-color: transparent; color: light-dark(rgb(0, 0, 0), rgb(255, 255, 255));&quot;&gt;Menunjukkan gambar gaya rambut&lt;/span&gt;&lt;/div&gt;" style="verticalLabelPosition=middle;verticalAlign=middle;html=1;shape=trapezoid;perimeter=trapezoidPerimeter;whiteSpace=wrap;size=0.23;arcSize=10;flipV=1;labelPosition=center;align=center;" vertex="1" parent="1">
          <mxGeometry x="110" y="610" width="100" height="70" as="geometry" />
        </mxCell>
        <mxCell id="tzy8CCWXX4crSWWEIRE--18" value="Keramas?" style="strokeWidth=2;html=1;shape=mxgraph.flowchart.decision;whiteSpace=wrap;" vertex="1" parent="1">
          <mxGeometry x="116.25" y="720" width="87.5" height="100" as="geometry" />
        </mxCell>
        <mxCell id="tzy8CCWXX4crSWWEIRE--19" value="Selesai" style="strokeWidth=2;html=1;shape=mxgraph.flowchart.terminator;whiteSpace=wrap;" vertex="1" parent="1">
          <mxGeometry x="130" y="860" width="60" height="30" as="geometry" />
        </mxCell>
        <mxCell id="tzy8CCWXX4crSWWEIRE--22" value="" style="endArrow=classic;html=1;rounded=0;exitX=0.5;exitY=1;exitDx=0;exitDy=0;entryX=0.5;entryY=0;entryDx=0;entryDy=0;exitPerimeter=0;" edge="1" parent="1" source="tzy8CCWXX4crSWWEIRE--10" target="tzy8CCWXX4crSWWEIRE--13">
          <mxGeometry width="50" height="50" relative="1" as="geometry">
            <mxPoint x="170" y="220" as="sourcePoint" />
            <mxPoint x="170" y="260" as="targetPoint" />
          </mxGeometry>
        </mxCell>
        <mxCell id="tzy8CCWXX4crSWWEIRE--23" value="" style="endArrow=classic;html=1;rounded=0;exitX=0.5;exitY=1;exitDx=0;exitDy=0;entryX=0.5;entryY=0;entryDx=0;entryDy=0;entryPerimeter=0;" edge="1" parent="1" source="tzy8CCWXX4crSWWEIRE--13" target="tzy8CCWXX4crSWWEIRE--14">
          <mxGeometry width="50" height="50" relative="1" as="geometry">
            <mxPoint x="300" y="260" as="sourcePoint" />
            <mxPoint x="290" y="310" as="targetPoint" />
          </mxGeometry>
        </mxCell>
        <mxCell id="tzy8CCWXX4crSWWEIRE--25" value="" style="endArrow=classic;html=1;rounded=0;exitX=1;exitY=0.5;exitDx=0;exitDy=0;entryX=0;entryY=0.5;entryDx=0;entryDy=0;" edge="1" parent="1" source="tzy8CCWXX4crSWWEIRE--15" target="tzy8CCWXX4crSWWEIRE--17">
          <mxGeometry width="50" height="50" relative="1" as="geometry">
            <mxPoint x="520" y="250" as="sourcePoint" />
            <mxPoint x="510" y="300" as="targetPoint" />
          </mxGeometry>
        </mxCell>
        <mxCell id="tzy8CCWXX4crSWWEIRE--26" value="" style="endArrow=classic;html=1;rounded=0;exitX=1;exitY=0.5;exitDx=0;exitDy=0;exitPerimeter=0;entryX=0;entryY=0.5;entryDx=0;entryDy=0;" edge="1" parent="1" source="tzy8CCWXX4crSWWEIRE--10" target="tzy8CCWXX4crSWWEIRE--12">
          <mxGeometry width="50" height="50" relative="1" as="geometry">
            <mxPoint x="530" y="260" as="sourcePoint" />
            <mxPoint x="520" y="310" as="targetPoint" />
          </mxGeometry>
        </mxCell>
        <mxCell id="tzy8CCWXX4crSWWEIRE--34" value="Tidak" style="edgeLabel;html=1;align=center;verticalAlign=middle;resizable=0;points=[];" vertex="1" connectable="0" parent="tzy8CCWXX4crSWWEIRE--26">
          <mxGeometry x="-0.3056" relative="1" as="geometry">
            <mxPoint y="-10" as="offset" />
          </mxGeometry>
        </mxCell>
        <mxCell id="tzy8CCWXX4crSWWEIRE--37" value="Tidak" style="edgeLabel;html=1;align=center;verticalAlign=middle;resizable=0;points=[];" vertex="1" connectable="0" parent="tzy8CCWXX4crSWWEIRE--26">
          <mxGeometry x="-0.3056" relative="1" as="geometry">
            <mxPoint x="3" y="220" as="offset" />
          </mxGeometry>
        </mxCell>
        <mxCell id="tzy8CCWXX4crSWWEIRE--39" value="Tidak" style="edgeLabel;html=1;align=center;verticalAlign=middle;resizable=0;points=[];" vertex="1" connectable="0" parent="tzy8CCWXX4crSWWEIRE--26">
          <mxGeometry x="-0.3056" relative="1" as="geometry">
            <mxPoint x="3" y="470" as="offset" />
          </mxGeometry>
        </mxCell>
        <mxCell id="tzy8CCWXX4crSWWEIRE--27" value="" style="endArrow=classic;html=1;rounded=0;exitX=0.5;exitY=1;exitDx=0;exitDy=0;exitPerimeter=0;entryX=0.5;entryY=0;entryDx=0;entryDy=0;entryPerimeter=0;" edge="1" parent="1" source="tzy8CCWXX4crSWWEIRE--18" target="tzy8CCWXX4crSWWEIRE--19">
          <mxGeometry width="50" height="50" relative="1" as="geometry">
            <mxPoint x="540" y="270" as="sourcePoint" />
            <mxPoint x="530" y="320" as="targetPoint" />
          </mxGeometry>
        </mxCell>
        <mxCell id="tzy8CCWXX4crSWWEIRE--28" value="" style="endArrow=classic;html=1;rounded=0;exitX=1;exitY=0.5;exitDx=0;exitDy=0;exitPerimeter=0;entryX=0;entryY=0.5;entryDx=0;entryDy=0;" edge="1" parent="1" source="tzy8CCWXX4crSWWEIRE--14" target="tzy8CCWXX4crSWWEIRE--16">
          <mxGeometry width="50" height="50" relative="1" as="geometry">
            <mxPoint x="550" y="280" as="sourcePoint" />
            <mxPoint x="540" y="330" as="targetPoint" />
          </mxGeometry>
        </mxCell>
        <mxCell id="tzy8CCWXX4crSWWEIRE--24" value="" style="endArrow=classic;html=1;rounded=0;exitX=0.5;exitY=1;exitDx=0;exitDy=0;exitPerimeter=0;entryX=0.5;entryY=0;entryDx=0;entryDy=0;" edge="1" parent="1" source="tzy8CCWXX4crSWWEIRE--14" target="tzy8CCWXX4crSWWEIRE--15">
          <mxGeometry width="50" height="50" relative="1" as="geometry">
            <mxPoint x="160" y="570" as="sourcePoint" />
            <mxPoint x="150" y="620" as="targetPoint" />
          </mxGeometry>
        </mxCell>
        <mxCell id="tzy8CCWXX4crSWWEIRE--32" value="" style="endArrow=classic;html=1;rounded=0;exitX=0.5;exitY=1;exitDx=0;exitDy=0;entryX=1;entryY=0.5;entryDx=0;entryDy=0;entryPerimeter=0;" edge="1" parent="1" source="tzy8CCWXX4crSWWEIRE--20" target="tzy8CCWXX4crSWWEIRE--19">
          <mxGeometry width="50" height="50" relative="1" as="geometry">
            <mxPoint x="330" y="670" as="sourcePoint" />
            <mxPoint x="220" y="860" as="targetPoint" />
            <Array as="points">
              <mxPoint x="320" y="875" />
            </Array>
          </mxGeometry>
        </mxCell>
        <mxCell id="tzy8CCWXX4crSWWEIRE--33" value="" style="endArrow=classic;html=1;rounded=0;exitX=0.5;exitY=1;exitDx=0;exitDy=0;entryX=1;entryY=0.5;entryDx=0;entryDy=0;" edge="1" parent="1" source="tzy8CCWXX4crSWWEIRE--12" target="tzy8CCWXX4crSWWEIRE--13">
          <mxGeometry width="50" height="50" relative="1" as="geometry">
            <mxPoint x="208" y="300" as="sourcePoint" />
            <mxPoint x="282" y="300" as="targetPoint" />
            <Array as="points">
              <mxPoint x="320" y="400" />
            </Array>
          </mxGeometry>
        </mxCell>
        <mxCell id="tzy8CCWXX4crSWWEIRE--35" value="Iya" style="text;html=1;align=center;verticalAlign=middle;resizable=0;points=[];autosize=1;strokeColor=none;fillColor=none;" vertex="1" parent="1">
          <mxGeometry x="130" y="328" width="40" height="30" as="geometry" />
        </mxCell>
        <mxCell id="tzy8CCWXX4crSWWEIRE--40" value="" style="endArrow=classic;html=1;rounded=0;exitX=0.972;exitY=0.517;exitDx=0;exitDy=0;entryX=0.119;entryY=0.451;entryDx=0;entryDy=0;entryPerimeter=0;exitPerimeter=0;" edge="1" parent="1" source="tzy8CCWXX4crSWWEIRE--18" target="tzy8CCWXX4crSWWEIRE--20">
          <mxGeometry width="50" height="50" relative="1" as="geometry">
            <mxPoint x="170" y="690" as="sourcePoint" />
            <mxPoint x="170" y="730" as="targetPoint" />
          </mxGeometry>
        </mxCell>
      </root>
    </mxGraphModel>
  </diagram>
</mxfile>
